<svg width="120" height="32" viewBox="0 0 120 32" fill="none" xmlns="http://www.w3.org/2000/svg">
  <!-- Parte principal do logo -->
  <path d="M10 6C7.79086 6 6 7.79086 6 10V22C6 24.2091 7.79086 26 10 26H22C24.2091 26 26 24.2091 26 22V10C26 7.79086 24.2091 6 22 6H10Z" fill="#8E5DFF"/>
  <!-- Estilo CSS (elemento decorativo) -->
  <rect x="10" y="12" width="12" height="2" rx="1" fill="white"/>
  <rect x="10" y="16" width="8" height="2" rx="1" fill="white"/>
  <rect x="10" y="20" width="10" height="2" rx="1" fill="white"/>
  <!-- Texto "UXperiment" -->
  <path d="M36.376 21V11.4H38.048L42.304 17.92H41.392L45.584 11.4H47.256V21H45.568V13.92L46.24 14.08L42.208 20.24H41.44L37.376 14.08L38.064 13.92V21H36.376ZM57.4833 21V11.4H59.1713V21H57.4833ZM48.7713 16.2C48.7713 15.32 48.9473 14.5333 49.2993 13.84C49.6513 13.1467 50.1233 12.6133 50.7153 12.24C51.3073 11.8533 51.9713 11.66 52.7073 11.66C53.3953 11.66 53.9793 11.8 54.4593 12.08C54.9526 12.36 55.3393 12.7133 55.6193 13.14V11.4H57.3073V21H55.6193V19.22C55.3393 19.66 54.9526 20.02 54.4593 20.3C53.9793 20.58 53.3953 20.72 52.7073 20.72C51.9713 20.72 51.3073 20.5267 50.7153 20.14C50.1233 19.7533 49.6513 19.22 49.2993 18.54C48.9473 17.8467 48.7713 17.0667 48.7713 16.2ZM55.6193 16.22C55.6193 15.6333 55.5073 15.1267 55.2833 14.7C55.0593 14.26 54.7593 13.9267 54.3833 13.7C54.0073 13.46 53.5953 13.34 53.1473 13.34C52.6993 13.34 52.2873 13.4533 51.9113 13.68C51.5353 13.9067 51.2353 14.24 51.0113 14.68C50.7873 15.12 50.6753 15.6333 50.6753 16.22C50.6753 16.8067 50.7873 17.32 51.0113 17.76C51.2353 18.2 51.5353 18.5333 51.9113 18.76C52.2873 18.9867 52.6993 19.1 53.1473 19.1C53.5953 19.1 54.0073 18.9867 54.3833 18.76C54.7593 18.52 55.0593 18.18 55.2833 17.74C55.5073 17.3 55.6193 16.7933 55.6193 16.22ZM65.6548 20.72C64.8255 20.72 64.0815 20.5267 63.4228 20.14C62.7775 19.74 62.2675 19.2 61.8928 18.52C61.5182 17.84 61.3308 17.0667 61.3308 16.2C61.3308 15.3333 61.5182 14.56 61.8928 13.88C62.2675 13.2 62.7775 12.6667 63.4228 12.28C64.0815 11.88 64.8255 11.68 65.6548 11.68C66.4842 11.68 67.2282 11.88 67.8868 12.28C68.5455 12.6667 69.0555 13.2 69.4168 13.88C69.7915 14.56 69.9788 15.3333 69.9788 16.2C69.9788 17.0667 69.7915 17.84 69.4168 18.52C69.0422 19.2 68.5322 19.74 67.8868 20.14C67.2282 20.5267 66.4842 20.72 65.6548 20.72ZM65.6548 19.08C66.0962 19.08 66.5015 18.9733 66.8708 18.76C67.2402 18.5467 67.5335 18.2267 67.7508 17.8C67.9815 17.36 68.0968 16.8267 68.0968 16.2C68.0968 15.5733 67.9815 15.0467 67.7508 14.62C67.5335 14.18 67.2402 13.8533 66.8708 13.64C66.5015 13.4267 66.0962 13.32 65.6548 13.32C65.2135 13.32 64.8082 13.4267 64.4388 13.64C64.0695 13.8533 63.7762 14.18 63.5588 14.62C63.3282 15.0467 63.2128 15.5733 63.2128 16.2C63.2128 16.8267 63.3282 17.36 63.5588 17.8C63.7762 18.2267 64.0695 18.5467 64.4388 18.76C64.8082 18.9733 65.2135 19.08 65.6548 19.08ZM71.5361 21V11.4H73.2241V13.3C73.5041 12.7 73.9041 12.2533 74.4241 11.96C74.9441 11.6533 75.5628 11.5 76.2801 11.5V13.26H75.8401C75.3521 13.26 74.9174 13.3467 74.5361 13.52C74.1548 13.68 73.8541 13.9533 73.6341 14.34C73.4141 14.7267 73.3041 15.26 73.3041 15.94V21H71.5361ZM78.3584 21V11.4H80.0464V13.14C80.3264 12.7133 80.7131 12.36 81.2064 12.08C81.6998 11.8 82.2838 11.66 82.9584 11.66C83.6944 11.66 84.3584 11.8533 84.9504 12.24C85.5424 12.6133 86.0144 13.1467 86.3664 13.84C86.7184 14.5333 86.8944 15.32 86.8944 16.2C86.8944 17.0667 86.7184 17.8467 86.3664 18.54C86.0144 19.22 85.5424 19.7533 84.9504 20.14C84.3584 20.5267 83.6944 20.72 82.9584 20.72C82.2838 20.72 81.6998 20.58 81.2064 20.3C80.7131 20.02 80.3264 19.66 80.0464 19.22V25.2H78.3584V21ZM82.5184 19.1C82.9664 19.1 83.3784 18.9867 83.7544 18.76C84.1304 18.5333 84.4304 18.2 84.6544 17.76C84.8784 17.32 84.9904 16.8067 84.9904 16.22C84.9904 15.6333 84.8784 15.12 84.6544 14.68C84.4304 14.24 84.1304 13.9067 83.7544 13.68C83.3784 13.4533 82.9664 13.34 82.5184 13.34C82.0704 13.34 81.6584 13.46 81.2824 13.7C80.9064 13.9267 80.6064 14.26 80.3824 14.7C80.1584 15.1267 80.0464 15.6333 80.0464 16.22C80.0464 16.7933 80.1584 17.3 80.3824 17.74C80.6064 18.18 80.9064 18.52 81.2824 18.76C81.6584 18.9867 82.0704 19.1 82.5184 19.1Z" fill="#FCFCFC"/>
</svg>
